<?xml version="1.0" encoding="utf-8"?>
<!-- Generator: Adobe Illustrator 18.1.1, SVG Export Plug-In . SVG Version: 6.00 Build 0)  -->
<svg version="1.1" id="Layer_1" xmlns="http://www.w3.org/2000/svg" xmlns:xlink="http://www.w3.org/1999/xlink" x="0px" y="0px"
	 width="49.2px" height="49.2px" viewBox="0 0 49.2 49.2" enable-background="new 0 0 49.2 49.2" xml:space="preserve">
<path fill="#231F20" d="M24.6,0C11,0,0,11,0,24.6c0,13.6,11,24.6,24.6,24.6s24.6-11,24.6-24.6C49.2,11,38.2,0,24.6,0z M31.1,24.5
	h-4.3c0,6.8,0,15.2,0,15.2h-6.3c0,0,0-8.3,0-15.2h-3v-5.4h3v-3.5c0-2.5,1.2-6.4,6.4-6.4l4.7,0v5.2c0,0-2.8,0-3.4,0
	c-0.6,0-1.3,0.3-1.3,1.5v3.2h4.8L31.1,24.5z"/>
</svg>
