<?xml version="1.0" encoding="utf-8"?>
<!-- Generator: Adobe Illustrator 18.1.1, SVG Export Plug-In . SVG Version: 6.00 Build 0)  -->
<svg version="1.1" id="Layer_1" xmlns="http://www.w3.org/2000/svg" xmlns:xlink="http://www.w3.org/1999/xlink" x="0px" y="0px"
	 width="49.2px" height="49.2px" viewBox="0 0 49.2 49.2" enable-background="new 0 0 49.2 49.2" xml:space="preserve">
<g>
	<path fill="#231F20" d="M24.6,0C11,0,0,11,0,24.6c0,13.6,11,24.6,24.6,24.6c13.6,0,24.6-11,24.6-24.6C49.2,11,38.2,0,24.6,0z
		 M38.3,36.6c0,1.1-0.9,2-2,2H12.9c-1.1,0-2-0.9-2-2V12.9c0-1.1,0.9-2,2-2h23.4c1.1,0,2,0.9,2,2V36.6z"/>
	<path fill="#231F20" d="M29.4,21.3c-2.2,0-3.2,1.2-3.7,2.1v0h0c0,0,0,0,0,0v-1.8h-4.1c0.1,1.2,0,12.5,0,12.5h4.1v-7
		c0-0.4,0-0.7,0.1-1c0.3-0.7,1-1.5,2.1-1.5c1.5,0,2.1,1.1,2.1,2.8v6.7h4.2v-7.2C34.2,23.1,32.1,21.3,29.4,21.3z"/>
	<path fill="#231F20" d="M17.1,15.6c-1.4,0-2.3,0.9-2.3,2.2c0,1.2,0.9,2.2,2.3,2.2h0c1.4,0,2.3-1,2.3-2.2
		C19.4,16.5,18.6,15.6,17.1,15.6z"/>
	<rect x="15" y="21.6" fill="#231F20" width="4.2" height="12.5"/>
</g>
</svg>
